<svg xmlns="http://www.w3.org/2000/svg" width="1585.61" height="1095.935" viewBox="0 0 419.526 289.966" xmlns:v="https://vecta.io/nano"><g transform="matrix(4.406784 0 0 4.406784 -6020.98953 -6153.63374)"><path d="M1461.5 1427.5c0-17.1-21.3-31.1-47.6-31.1s-47.6 14-47.6 31.1v1.8c0 18.2 18.6 32.9 47.6 32.9 29.1 0 47.6-14.7 47.6-32.9z" fill="#2d3277"/><path d="M1459.8 1427.5c0 16.1-20.5 29.2-45.7 29.2s-45.7-13.1-45.7-29.2 20.5-29.2 45.7-29.2 45.7 13.1 45.7 29.2z" fill="#ffe600"/><path d="M1398.9 1418.3s-.5.5-.2.9c.7.9 2.9 1.4 5.2.9 1.3-.3 3.1-1.7 4.7-3 1.8-1.4 3.6-2.9 5.4-3.4 1.9-.6 3.1-.3 3.9-.1.9.3 1.9.9 3.6 2.1 3.1 2.3 15.7 13.3 17.9 15.2 1.7-.8 9.543-4.121 20.142-6.521-.9-5.6-4.369-10.758-9.569-14.958-7.2 3-16.073 4.579-24.773.379 0 0-4.7-2.2-9.4-2.1-6.9.2-9.8 3.1-13 6.3zm40 14.04c-.1-.1-14.8-12.9-18.1-15.4-1.9-1.4-3-1.8-4.1-2-.6-.1-1.4 0-2 .2-1.5.4-3.6 1.8-5.4 3.2-1.9 1.5-3.6 2.9-5.2 3.2-2.1.5-4.6-.1-5.7-.9a2.59 2.59 0 0 1-1-1.1c-.4-1 .4-1.8.5-1.9l4-4.4 1.4-1.4c-1.3.2-2.5.5-3.7.8-1.5.4-2.9.8-4.3.8-.6 0-3.8-.5-4.4-.7-3.7-1-6.9-2-11.7-4.2-5.7 4.3-9.6 9.6-10.7 15.5l2.7.7c13 2.9 17 5.9 17.8 6.5.8-.9 1.9-1.4 3.2-1.4 1.4 0 2.7.7 3.5 1.8.7-.6 1.8-1.1 3.1-1.1.6 0 1.2.1 1.9.3 1.5.5 2.2 1.5 2.6 2.4.5-.2 1.1-.4 1.8-.4s1.4.2 2.2.5c2.4 1 2.8 3.4 2.6 5.2h.5c2.9 0 5.2 2.3 5.2 5.2 0 .9-.2 1.7-.6 2.4.8.4 2.7 1.4 4.5 1.2 1.4-.2 1.9-.6 2.1-.9.1-.2.3-.4.1-.6l-3.7-4.1s-.6-.6-.4-.8.6.1.9.3c1.9 1.6 4.1 3.9 4.1 3.9s.2.3 1 .5c.7.1 2 0 2.9-.7.2-.2.5-.4.6-.6.9-1.2-.1-2.4-.1-2.4l-4.3-4.8s-.6-.6-.4-.8.6.1.9.3c1.4 1.1 3.3 3.1 5.1 4.9.4.3 2 1.3 4.1-.1 1.3-.9 1.6-1.9 1.5-2.7-.1-1-.9-1.8-.9-1.8l-5.8-5.9s-.6-.5-.4-.8c.2-.2.6.1.9.3 1.9 1.6 6.9 6.2 6.9 6.2.1 0 1.8 1.3 4-.1.8-.5 1.3-1.2 1.3-2.1.1-1.3-1-2.2-1-2.2zm-28.3 7.26c-.9 0-1.9.5-2 .5s0-.4.1-.6 1.3-3.8-1.6-5.1c-2.2-1-3.6.1-4 .6-.1.1-.2.1-.2 0 0-.6-.3-2.4-2.3-3-2.8-.9-4.5 1.1-5 1.8-.2-1.6-1.5-2.8-3.2-2.8-1.8 0-3.2 1.4-3.2 3.2s1.4 3.2 3.2 3.2c.9 0 1.6-.3 2.2-.9v.1c-.1.8-.4 3.7 2.6 4.8 1.2.5 2.2.1 3.1-.5.3-.2.3-.1.3.1-.1.7 0 2.3 2.3 3.2 1.7.7 2.7 0 3.3-.6.3-.3.4-.2.4.2.1 2.1 1.9 3.8 4 3.8 2.2 0 4-1.8 4-4s-1.8-4-4-4z" fill="#fff"/><path d="M1439.5 1430.6l-17.8-15.1c-1.6-1.2-2.7-1.9-3.7-2.1-.4-.1-1-.3-1.8-.3-.7 0-1.5.1-2.3.4-1.8.6-3.6 2-5.4 3.4l-.1.1c-1.6 1.3-3.3 2.6-4.6 2.9-.6.1-1.1.2-1.7.2-1.4 0-2.7-.4-3.2-1-.1-.1 0-.3.2-.5l4-4.3c3.1-3.1 6-6 12.8-6.2h.3c4.2 0 8.4 1.9 8.9 2.1 4 1.9 8 2.9 12.1 2.9 4.3 0 8.737-1.153 13.337-3.253-.433-.549-1.046-.847-1.589-1.26-4.1 1.8-7.948 2.613-11.748 2.613s-7.6-.9-11.3-2.7c-.2-.1-4.8-2.3-9.7-2.3h-.4c-5.7.1-8.9 2.1-11 3.9-2.1 0-3.9.6-5.5 1-1.4.4-2.7.7-3.9.7h-1.5c-1.4 0-8.4-1.7-13.9-3.9-.6.4-1.1.8-1.7 1.2 5.8 2.4 12.9 4.2 15.1 4.4.6 0 1.3.1 2 .1 1.5 0 2.9-.4 4.4-.8.9-.2 1.8-.5 2.7-.7l-.8.8-4 4.4c-.3.3-1 1.2-.6 2.2.2.4.6.8 1.1 1.2 1 .6 2.7 1.1 4.3 1.1.6 0 1.2-.1 1.7-.2 1.7-.4 3.5-1.8 5.3-3.3 1.5-1.2 3.6-2.7 5.2-3.2.5-.1 1-.2 1.5-.2h.4c1.1.1 2.1.5 4 1.9 3.3 2.5 18 15.3 18.1 15.4 0 0 .9.8.9 2.2 0 .7-.5 1.4-1.2 1.9-.6.4-1.3.6-1.9.6-1 0-1.7-.5-1.7-.5l-6.9-6.2c-.3-.3-.6-.5-.9-.5-.2 0-.3.1-.4.2-.3.4 0 .9.4 1.2l5.9 5.9s.7.7.8 1.6c0 1-.4 1.8-1.4 2.4-.7.5-1.4.7-2.1.7-.9 0-1.5-.4-1.7-.5l-.9-.8c-1.5-1.5-3.1-3.1-4.3-4-.3-.2-.6-.5-.9-.5-.1 0-.3 0-.4.2-.1.1-.2.4.1.9.1.2.3.3.3.3l4.3 4.8s.9 1.1.1 2l-.2.2-.4.4c-.7.6-1.7.7-2.1.7h-.6c-.4-.1-.7-.2-.9-.4-.2-.3-2.4-2.4-4.2-3.9-.2-.2-.5-.4-.8-.4a.76.76 0 0 0-.4.2c-.3.4.2 1 .4 1.2l3.7 4s0 .1-.1.3-.6.6-1.9.8h-.5c-1.4 0-2.8-.7-3.6-1.1.3-.7.5-1.5.5-2.3 0-3-2.4-5.4-5.4-5.4h-.2c.1-1.4-.1-4-2.8-5.1-.8-.3-1.5-.5-2.3-.5-.6 0-1.1.1-1.7.3-.6-1.1-1.5-1.9-2.7-2.3-.7-.2-1.3-.3-2-.3-1.1 0-2.1.3-3 1a4.6 4.6 0 0 0-3.6-1.7c-1.2 0-2.4.5-3.2 1.3-1.1-.9-5.6-3.7-17.7-6.5-.6-.1-1.9-.5-2.7-.8-.1.6-.2 1.3-.3 2l2.7.6c12.3 2.7 16.4 5.6 17.1 6.1-.2.6-.3 1.2-.3 1.8 0 2.6 2.1 4.6 4.6 4.6.3 0 .6 0 .9-.1.4 1.9 1.6 3.3 3.5 4 .6.2 1.1.3 1.6.3.3 0 .7 0 1.1-.1.3.9 1.1 2 2.9 2.7.6.3 1.2.4 1.8.4.5 0 1-.1 1.4-.3.8 2 2.8 3.4 5 3.4 1.5 0 2.9-.6 3.9-1.7.9.5 2.7 1.4 4.6 1.4h.7c1.9-.2 2.7-1 3.1-1.5.1-.1.1-.2.2-.3.4.1.9.2 1.5.2 1 0 2-.3 3-1.1 1-.7 1.7-1.7 1.7-2.6.3.1.7.1 1 .1 1 0 2.1-.3 3.1-1 1.9-1.2 2.2-2.9 2.2-3.9.3.1.7.1 1 .1a5.21 5.21 0 0 0 2.9-.9c1.2-.8 1.9-1.9 2-3.2.1-.9-.2-1.8-.6-2.6 3.2-1.4 10.458-4.005 19.058-6.005 0-.7-.042-1.342-.242-2.043-10.3 2.2-18.117 5.548-20.017 6.448zm-28.9 16.7c-2 0-3.6-1.6-3.7-3.6 0-.2 0-.6-.4-.6-.2 0-.3.1-.5.2-.4.4-1 .8-1.8.8-.4 0-.8-.1-1.2-.3-2.1-.9-2.2-2.3-2.1-2.9 0-.2 0-.3-.1-.4l-.1-.1h-.1c-.1 0-.2 0-.4.2-.6.4-1.2.6-1.8.6-.3 0-.7-.1-1-.2-2.8-1.1-2.6-3.7-2.4-4.5 0-.2 0-.3-.1-.4l-.2-.2-.2.2c-.6.5-1.3.8-2 .8-1.6 0-2.9-1.3-2.9-2.9s1.3-2.9 2.9-2.9a3 3 0 0 1 2.9 2.5l.1.8.4-.7c0-.1 1.2-1.9 3.4-1.8.4 0 .8.1 1.3.2 1.7.5 2 2.1 2 2.7 0 .4.3.4.3.4.1 0 .3-.1.3-.2.3-.3 1-.9 2.1-.9.5 0 1 .1 1.6.4 2.7 1.2 1.5 4.6 1.5 4.7-.2.6-.3.8 0 1h.2c.1 0 .3 0 .5-.1.4-.1.9-.3 1.4-.3a3.76 3.76 0 0 1 3.7 3.7c.1 2.2-1.6 3.8-3.6 3.8z" fill="#2d3277"/></g></svg>